<svg width="215" height="174" viewBox="0 0 215 174" fill="none" xmlns="http://www.w3.org/2000/svg">
    <mask id="a" style="mask-type:luminance" maskUnits="userSpaceOnUse" x="9" y="0" width="206"
        height="149">
        <path d="M9.333.224H215V149H9.333V.224Z" fill="#fff" />
    </mask>
    <g mask="url(#a)">
        <path
            d="M215 125.5c0 12.583-10.198 22.786-22.776 22.786H32.771c-12.578 0-22.776-10.203-22.776-22.786V22.953C9.995 10.37 20.193.167 32.77.167h159.453C204.802.167 215 10.37 215 22.953V125.5Z"
            fill="#CCD6DD" />
    </g>
    <path
        d="M78.037 72.151 13.62 136.594c-.151.166-.208.37-.339.526a22.711 22.711 0 0 0 7.88 7.885c.167-.13.36-.187.51-.344l64.433-64.453a5.709 5.709 0 0 0 0-8.057 5.712 5.712 0 0 0-8.067 0Zm133.677 64.969c-.12-.156-.188-.36-.344-.511l-64.417-64.453a5.69 5.69 0 0 0-8.057 0 5.693 5.693 0 0 0 0 8.052l64.422 64.453c.151.151.354.214.515.344a22.667 22.667 0 0 0 7.881-7.885Z"
        fill="#99AAB5" />
    <mask id="b" style="mask-type:luminance" maskUnits="userSpaceOnUse" x="9" y="0" width="206"
        height="120">
        <path d="M9.333.224H215v119.443H9.333V.224Z" fill="#fff" />
    </mask>
    <g mask="url(#b)">
        <path
            d="M192.224.167H32.771C20.193.167 9.995 10.37 9.995 22.953v5.87l82.724 82.583c10.791 10.781 28.406 10.781 39.208 0L215 28.703v-5.75C215 10.37 204.802.167 192.224.167Z"
            fill="#99AAB5" />
    </g>
    <mask id="c" style="mask-type:luminance" maskUnits="userSpaceOnUse" x="12" y="0" width="202"
        height="105">
        <path d="M12 .224h201.333V105H12V.224Z" fill="#fff" />
    </mask>
    <g mask="url(#c)">
        <path
            d="M192.224.167H32.771c-9.042 0-16.792 5.323-20.469 12.963l84.083 84.125c8.896 8.896 23.329 8.896 32.214 0l84.094-84.125C209.016 5.49 201.271.167 192.224.167Z"
            fill="#E1E8ED" />
    </g>
    <path
        d="M163.75 67.276c0-15.687-12.714-28.411-28.396-28.411-9.521 0-17.927 4.708-23.078 11.89-5.161-7.182-13.557-11.89-23.068-11.89-15.687 0-28.4 12.724-28.4 28.411 0 2.23.286 4.38.76 6.453 3.948 24.51 31.187 50.37 50.708 57.469 19.521-7.099 46.766-32.958 50.703-57.458.485-2.084.771-4.24.771-6.464Z"
        fill="#E75A70" />
    <mask id="d" style="mask-type:luminance" maskUnits="userSpaceOnUse" x="129" y="142" width="31"
        height="32">
        <path d="M129.333 142.333H160v30.891h-30.667v-30.891Z" fill="#fff" />
    </mask>
    <g mask="url(#d)">
        <path
            d="M141.281 161.823c8.104 8.109 16.136 13.219 17.938 11.417 1.807-1.808-3.308-9.834-11.412-17.938-8.104-8.114-16.135-13.224-17.942-11.417-1.797 1.803 3.312 9.829 11.416 17.938Z"
            fill="#C1694F" />
    </g>
    <path
        d="m129.865 143.885 9.791-9.786s4.995 6.427 10.531 16.745c4.152 7.729 5.771 12.609 5.771 12.609l-6.521 6.526s-4.885-1.625-12.609-5.771c-10.318-5.541-16.739-10.536-16.739-10.536l9.776-9.787Z"
        fill="#FFCC4D" />
    <path
        d="M2.661 16.682C18.97.37 86.448 64.177 89.708 67.438c3.26 3.26 6.016 6.218 4.282 7.953l9.781 9.78c9.791 9.792 39.146 45.662 35.885 48.923l-19.573 19.573c-3.26 3.26-39.14-26.094-48.927-35.875l-9.781-9.787c-1.734 1.735-4.693-1.021-7.953-4.286-3.26-3.255-67.068-70.73-50.76-87.037Z"
        fill="#292F33" />
    <path
        d="M53.422 103.724c-.396-.385-1.672-1.729-3.573-3.766l36.089-36.083c2.036 1.896 3.374 3.177 3.765 3.573 3.26 3.26 6.016 6.219 4.281 7.953L61.37 108.016c-1.73 1.724-4.688-1.032-7.948-4.292Z"
        fill="#FFCC4D" />
    <path
        d="M15.615 16.776c4.276-4.276 9.984-8.76 18.14-4.682 8.151 4.078 33.73 20.484 45.563 32.312 6.099 6.1 5.75 9.698 3.463 9.99-3.786.484-6.318.4-9.786-3.063-3.464-3.463-4.073-9.375-4.073-9.375S54.849 31.156 43.745 24.531c-11.115-6.63-15.073-7.76-18.959-3.875-3.885 3.886-9.171-3.88-9.171-3.88Z"
        fill="#FFAC33" />
    <path
        d="M26.417 19.02 5 40.439c-1.625-3.271-2.906-6.386-3.77-9.277l15.91-15.916c2.896.87 6.006 2.15 9.277 3.776Z"
        fill="#FFAC33" />
</svg>