<svg width="499" height="172" viewBox="0 0 499 172" fill="none" xmlns="http://www.w3.org/2000/svg">
    <path
        d="M124.328 13.849v14.323l-12.693 2.443v101.718H87.953l-47.849-79.75-.49.084v62.984l12.699 2.443v14.239H3.24v-14.239l12.614-2.443V30.615L3.24 28.172V13.849h36.375l47.848 79.75.49-.083V30.615L75.26 28.172V13.849h49.068Zm8.219 73.646c0-13.13 3.672-23.886 11.026-32.266 7.349-8.38 17.51-12.573 30.474-12.573 13.021 0 23.208 4.177 30.557 12.532 7.349 8.354 11.026 19.124 11.026 32.307v1.708c0 13.24-3.677 24.021-11.026 32.349-7.349 8.328-17.484 12.49-30.396 12.49-13.073 0-23.286-4.162-30.635-12.49-7.354-8.328-11.026-19.109-11.026-32.349v-1.708Zm23.76 1.708c0 8.031 1.412 14.474 4.229 19.328 2.823 4.854 7.381 7.281 13.672 7.281 6.131 0 10.62-2.437 13.469-7.322 2.849-4.881 4.271-11.313 4.271-19.287v-1.708c0-7.813-1.438-14.188-4.313-19.125-2.875-4.938-7.406-7.407-13.588-7.407-6.182 0-10.688 2.47-13.511 7.407-2.817 4.937-4.229 11.312-4.229 19.125v1.708ZM261.036 22.72v21.56H276.5v16.683h-15.464v44.838c0 3.422.704 5.859 2.115 7.328 1.412 1.464 3.313 2.198 5.698 2.198 1.63 0 3.052-.073 4.271-.208a42.311 42.311 0 0 0 4.109-.688l2.037 17.167a56.317 56.317 0 0 1-7.896 1.833c-2.604.407-5.422.61-8.464.61-8.187 0-14.495-2.25-18.916-6.756-4.422-4.5-6.636-11.635-6.636-21.401V60.963h-12.937V44.282h12.937V22.72h23.682Zm26.365 95.375 11.474-2.443V61.047l-12.693-2.443V44.281h36.453v71.37l11.396 2.443v14.239h-46.63v-14.239Zm35.234-94.886h-23.76V5.385h23.76v17.823Zm20.511 94.886 11.474-2.443V60.964h-13.104V44.28h13.104v-9.765c0-9.87 2.844-17.48 8.542-22.823 5.697-5.344 13.697-8.016 24.005-8.016 2.01 0 4.057.151 6.146.448 2.088.297 4.38.719 6.875 1.26l-2.032 17.657a124.553 124.553 0 0 0-3.786-.568c-1.219-.162-2.646-.245-4.271-.245-3.854 0-6.771 1.057-8.75 3.177-1.979 2.115-2.969 5.151-2.969 9.11v9.765h17.495v16.683H378.38v54.687l11.474 2.443v14.239h-46.708v-14.239Zm151.844-59.49-8.219 1.224-32.386 85.688c-2.552 6.349-5.953 11.666-10.213 15.953-4.26 4.281-10.672 6.427-19.245 6.427-2.01 0-3.896-.162-5.656-.49-1.766-.323-3.839-.786-6.224-1.385l2.766-17.333c.76.109 1.546.218 2.359.328a16.19 16.19 0 0 0 2.115.161c3.963 0 6.999-.963 9.114-2.885 2.115-1.927 3.745-4.328 4.886-7.203l2.682-6.672-27.912-72.51-8.218-1.303V44.281h43.13v14.323l-9.849 1.63 12.047 35.157 1.218 6.343.49.084 13.917-41.584-9.933-1.63V44.281h43.131v14.323Z"
        stroke="#E1E8ED" stroke-width="6.25" />
</svg>
  